<svg width="36" height="36" viewBox="0 0 36 36" fill="none" xmlns="http://www.w3.org/2000/svg">
<path d="M30.05 3.5H6.45001C6.17871 3.5 5.95834 3.72037 5.95834 3.99167V13.7334L3.53249 20.0402L3.53534 20.0411C3.51427 20.0962 3.5 20.1544 3.5 20.2167V22.675C3.5 22.9463 3.72037 23.1667 3.99167 23.1667H32.5083C32.7796 23.1667 33 22.9463 33 22.675V20.2167C33 20.1544 32.9857 20.0962 32.9647 20.0411L32.9675 20.0402L30.5417 13.7334V3.99167C30.5417 3.72037 30.3213 3.5 30.05 3.5H30.05ZM6.94167 4.48333H29.5583V13.3333H15.7917V14.3167H29.7123L31.7925 19.725H4.70754L6.78771 14.3167H7.92512V13.3333H6.94179L6.94167 4.48333ZM32.0167 22.1833H4.48334V20.7083H32.0167V22.1833Z" fill="black"/>
<path d="M9.39999 30.5419V32.5085C9.39999 32.7798 9.62037 33.0002 9.89166 33.0002H13.825C14.0963 33.0002 14.3167 32.7798 14.3167 32.5085V30.5419C14.3167 29.6946 13.886 28.946 13.2315 28.5038C13.597 28.1465 13.825 27.6504 13.825 27.1002C13.825 26.0157 12.9429 25.1335 11.8583 25.1335C10.7738 25.1335 9.89166 26.0157 9.89166 27.1002C9.89166 27.6505 10.1197 28.1465 10.4851 28.5038C9.83064 28.9459 9.39999 29.6946 9.39999 30.5419ZM10.875 27.1002C10.875 26.5578 11.316 26.1169 11.8583 26.1169C12.4007 26.1169 12.8417 26.5578 12.8417 27.1002C12.8417 27.6426 12.4007 28.0835 11.8583 28.0835C11.316 28.0835 10.875 27.6426 10.875 27.1002ZM10.3833 30.5419C10.3833 29.7286 11.0451 29.0669 11.8583 29.0669C12.6716 29.0669 13.3333 29.7286 13.3333 30.5419V32.0169H10.3833V30.5419Z" fill="black"/>
<path d="M33 30.5419C33 29.6946 32.5694 28.946 31.9149 28.5038C32.2803 28.1465 32.5083 27.6504 32.5083 27.1002C32.5083 26.0157 31.6262 25.1335 30.5417 25.1335C29.4571 25.1335 28.575 26.0157 28.575 27.1002C28.575 27.6505 28.8031 28.1465 29.1685 28.5038C28.514 28.9459 28.0833 29.6946 28.0833 30.5419V32.5085C28.0833 32.7798 28.3037 33.0002 28.575 33.0002H32.5083C32.7796 33.0002 33 32.7798 33 32.5085V30.5419ZM29.5583 27.1002C29.5583 26.5578 29.9993 26.1169 30.5417 26.1169C31.084 26.1169 31.525 26.5578 31.525 27.1002C31.525 27.6426 31.084 28.0835 30.5417 28.0835C29.9993 28.0835 29.5583 27.6426 29.5583 27.1002ZM32.0167 32.0169H29.0667V30.5419C29.0667 29.7286 29.7284 29.0669 30.5417 29.0669C31.3549 29.0669 32.0167 29.7286 32.0167 30.5419V32.0169Z" fill="black"/>
<path d="M22.1833 30.5419V32.5085C22.1833 32.7798 22.4037 33.0002 22.675 33.0002H26.6083C26.8796 33.0002 27.1 32.7798 27.1 32.5085V30.5419C27.1 29.6946 26.6694 28.946 26.0149 28.5038C26.3803 28.1465 26.6083 27.6504 26.6083 27.1002C26.6083 26.0157 25.7262 25.1335 24.6417 25.1335C23.5572 25.1335 22.675 26.0157 22.675 27.1002C22.675 27.6505 22.9031 28.1465 23.2685 28.5038C22.614 28.9459 22.1833 29.6946 22.1833 30.5419ZM23.6583 27.1002C23.6583 26.5578 24.0993 26.1169 24.6417 26.1169C25.184 26.1169 25.625 26.5578 25.625 27.1002C25.625 27.6426 25.184 28.0835 24.6417 28.0835C24.0993 28.0835 23.6583 27.6426 23.6583 27.1002ZM23.1667 30.5419C23.1667 29.7286 23.8284 29.0669 24.6417 29.0669C25.4549 29.0669 26.1167 29.7286 26.1167 30.5419V32.0169H23.1667V30.5419Z" fill="black"/>
<path d="M15.7917 30.5419V32.5085C15.7917 32.7798 16.012 33.0002 16.2833 33.0002H20.2167C20.4879 33.0002 20.7083 32.7798 20.7083 32.5085V30.5419C20.7083 29.6946 20.2777 28.946 19.6232 28.5038C19.9886 28.1465 20.2167 27.6504 20.2167 27.1002C20.2167 26.0157 19.3345 25.1335 18.25 25.1335C17.1655 25.1335 16.2833 26.0157 16.2833 27.1002C16.2833 27.6505 16.5114 28.1465 16.8768 28.5038C16.2223 28.9459 15.7917 29.6946 15.7917 30.5419ZM17.2667 27.1002C17.2667 26.5578 17.7076 26.1169 18.25 26.1169C18.7924 26.1169 19.2333 26.5578 19.2333 27.1002C19.2333 27.6426 18.7924 28.0835 18.25 28.0835C17.7076 28.0835 17.2667 27.6426 17.2667 27.1002ZM16.775 30.5419C16.775 29.7286 17.4367 29.0669 18.25 29.0669C19.0632 29.0669 19.725 29.7286 19.725 30.5419V32.0169H16.775V30.5419Z" fill="black"/>
<path d="M3.5 30.5419V32.5085C3.5 32.7798 3.72037 33.0002 3.99167 33.0002H7.925C8.19629 33.0002 8.41667 32.7798 8.41667 32.5085V30.5419C8.41667 29.6946 7.98602 28.946 7.33152 28.5038C7.69697 28.1465 7.925 27.6504 7.925 27.1002C7.925 26.0157 7.04287 25.1335 5.95833 25.1335C4.8738 25.1335 3.99167 26.0157 3.99167 27.1002C3.99167 27.6505 4.21972 28.1465 4.58515 28.5038C3.93064 28.9459 3.5 29.6946 3.5 30.5419ZM4.975 27.1002C4.975 26.5578 5.41597 26.1169 5.95833 26.1169C6.5007 26.1169 6.94167 26.5578 6.94167 27.1002C6.94167 27.6426 6.5007 28.0835 5.95833 28.0835C5.41597 28.0835 4.975 27.6426 4.975 27.1002ZM4.48333 30.5419C4.48333 29.7286 5.14509 29.0669 5.95833 29.0669C6.77158 29.0669 7.43333 29.7286 7.43333 30.5419V32.0169H4.48333V30.5419Z" fill="black"/>
<path d="M8.90832 18.7417H14.8083C15.0796 18.7417 15.3 18.5213 15.3 18.25V14.3167C15.3 14.0454 15.0796 13.825 14.8083 13.825H14.3167V13.3334C14.3167 12.4861 13.886 11.7375 13.2315 11.2954C13.597 10.938 13.825 10.4419 13.825 9.89171C13.825 8.80718 12.9429 7.92505 11.8583 7.92505C10.7738 7.92505 9.89166 8.80718 9.89166 9.89171C9.89166 10.442 10.1197 10.938 10.4851 11.2954C9.83063 11.7374 9.39999 12.4861 9.39999 13.3334V13.825H8.90832C8.63703 13.825 8.41666 14.0454 8.41666 14.3167V18.25C8.41666 18.5213 8.63703 18.7417 8.90832 18.7417ZM10.875 9.89171C10.875 9.34935 11.316 8.90838 11.8583 8.90838C12.4007 8.90838 12.8417 9.34935 12.8417 9.89171C12.8417 10.4341 12.4007 10.875 11.8583 10.875C11.316 10.875 10.875 10.4341 10.875 9.89171ZM10.3833 13.3334C10.3833 12.5201 11.0451 11.8584 11.8583 11.8584C12.6716 11.8584 13.3333 12.5201 13.3333 13.3334V13.825H10.3833V13.3334ZM9.39999 14.8084H14.3167V17.7584H9.39999V14.8084Z" fill="black"/>
<path d="M17.3044 7.47277L18.5862 7.90013C18.71 7.94095 18.8447 7.93108 18.9617 7.87357L20.9284 6.89024L20.4883 6.01074L18.7038 6.90254L17.422 6.47518C17.2982 6.43436 17.1634 6.4438 17.0464 6.50174L15.0798 7.48508L15.5199 8.36457L17.3044 7.47277Z" fill="black"/>
<path d="M19.725 7.92505H20.7083V11.3667H19.725V7.92505Z" fill="black"/>
<path d="M18.25 8.9082H19.2333V11.3665H18.25V8.9082Z" fill="black"/>
<path d="M16.775 8.41675H17.7583V11.3667H16.775V8.41675Z" fill="black"/>
<path d="M15.3 8.9082H16.2834V11.3665H15.3V8.9082Z" fill="black"/>
<path d="M23.6583 9.89168C23.6583 11.2473 24.7611 12.35 26.1167 12.35C27.4723 12.35 28.575 11.2473 28.575 9.89168C28.575 8.53609 27.4723 7.43335 26.1167 7.43335C25.8454 7.43335 25.625 7.65372 25.625 7.92502V9.40002H24.15C23.8787 9.40002 23.6583 9.62039 23.6583 9.89168ZM26.1167 10.3833C26.388 10.3833 26.6083 10.163 26.6083 9.89168V8.50074C27.1806 8.70378 27.5917 9.25055 27.5917 9.89168C27.5917 10.7049 26.9299 11.3667 26.1167 11.3667C25.4755 11.3667 24.9287 10.9556 24.7257 10.3833H26.1167Z" fill="black"/>
<path d="M22.675 8.90825H24.6417C24.913 8.90825 25.1333 8.68788 25.1333 8.41658V6.44992C25.1333 6.17863 24.913 5.95825 24.6417 5.95825C23.2861 5.95825 22.1833 7.06099 22.1833 8.41658C22.1833 8.68788 22.4037 8.90825 22.675 8.90825ZM24.15 7.02565V7.92492H23.2507C23.3993 7.50656 23.7317 7.17427 24.15 7.02565Z" fill="black"/>
</svg>
